<svg width="337" height="682" viewBox="0 0 337 682" fill="none" xmlns="http://www.w3.org/2000/svg">
<path d="M335.715 217.585C335.715 217.157 335.715 216.942 335.632 216.779C335.558 216.635 335.441 216.518 335.298 216.445C335.134 216.362 334.92 216.362 334.492 216.362H325.47C325.042 216.362 324.828 216.362 324.665 216.445C324.521 216.518 324.404 216.635 324.33 216.779C324.247 216.942 324.247 217.157 324.247 217.585V296.178C324.247 296.607 324.247 296.821 324.33 296.984C324.404 297.128 324.521 297.245 324.665 297.318C324.828 297.402 325.042 297.402 325.47 297.402H334.492C334.92 297.402 335.134 297.402 335.298 297.318C335.441 297.245 335.558 297.128 335.632 296.984C335.715 296.821 335.715 296.607 335.715 296.178V217.585Z" fill="url(#paint0_linear_138_89)"/>
<path d="M335.715 292.05H325.011V296.179C325.011 296.607 325.011 296.821 325.095 296.984C325.168 297.128 325.285 297.245 325.429 297.319C325.592 297.402 325.806 297.402 326.234 297.402H334.491C334.92 297.402 335.134 297.402 335.297 297.319C335.441 297.245 335.558 297.128 335.631 296.984C335.715 296.821 335.715 296.607 335.715 296.179V292.05Z" fill="url(#paint1_linear_138_89)"/>
<path d="M335.715 221.713H325.011V217.585C325.011 217.157 325.011 216.942 325.095 216.779C325.168 216.635 325.285 216.518 325.429 216.445C325.592 216.362 325.806 216.362 326.234 216.362H334.491C334.92 216.362 335.134 216.362 335.297 216.445C335.441 216.518 335.558 216.635 335.631 216.779C335.715 216.942 335.715 217.157 335.715 217.585V221.713Z" fill="url(#paint2_linear_138_89)"/>
<path fill-rule="evenodd" clip-rule="evenodd" d="M324.414 297.332C324.247 297.004 324.247 296.576 324.247 295.72V218.044C324.247 217.187 324.247 216.759 324.414 216.432C324.56 216.144 324.794 215.91 325.082 215.764C325.409 215.597 325.837 215.597 326.694 215.597H334.033C334.889 215.597 335.318 215.597 335.645 215.764C335.932 215.91 336.166 216.144 336.313 216.432C336.48 216.759 336.48 217.187 336.48 218.044V295.72C336.48 296.576 336.48 297.004 336.313 297.332C336.166 297.619 335.932 297.853 335.645 298C335.318 298.166 334.889 298.166 334.033 298.166H326.694C325.837 298.166 325.409 298.166 325.082 298C324.794 297.853 324.56 297.619 324.414 297.332ZM325.095 296.984C325.012 296.821 325.012 296.607 325.012 296.179V217.585C325.012 217.157 325.012 216.943 325.095 216.779C325.168 216.635 325.285 216.518 325.429 216.445C325.593 216.362 325.807 216.362 326.235 216.362H334.492C334.92 216.362 335.134 216.362 335.298 216.445C335.441 216.518 335.558 216.635 335.632 216.779C335.715 216.943 335.715 217.157 335.715 217.585V296.179C335.715 296.607 335.715 296.821 335.632 296.984C335.558 297.128 335.441 297.245 335.298 297.319C335.134 297.402 334.92 297.402 334.492 297.402H326.235C325.807 297.402 325.593 297.402 325.429 297.319C325.285 297.245 325.168 297.128 325.095 296.984Z" fill="#353638"/>
<path d="M1.61475 246.637C1.61475 246.209 1.61475 245.995 1.69807 245.831C1.77137 245.687 1.88833 245.571 2.03219 245.497C2.19573 245.414 2.40982 245.414 2.83799 245.414H11.8594C12.2876 245.414 12.5017 245.414 12.6653 245.497C12.8091 245.571 12.9261 245.687 12.9994 245.831C13.0827 245.995 13.0827 246.209 13.0827 246.637V294.65C13.0827 295.078 13.0827 295.292 12.9994 295.455C12.9261 295.599 12.8091 295.716 12.6653 295.79C12.5017 295.873 12.2876 295.873 11.8594 295.873H2.83799C2.40982 295.873 2.19573 295.873 2.03219 295.79C1.88833 295.716 1.77137 295.599 1.69807 295.455C1.61475 295.292 1.61475 295.078 1.61475 294.65V246.637Z" fill="url(#paint3_linear_138_89)"/>
<path d="M1.61475 290.521H12.3182V294.649C12.3182 295.078 12.3182 295.292 12.2348 295.455C12.1615 295.599 12.0446 295.716 11.9007 295.789C11.7372 295.873 11.5231 295.873 11.0949 295.873H2.83799C2.40982 295.873 2.19573 295.873 2.03219 295.789C1.88833 295.716 1.77137 295.599 1.69807 295.455C1.61475 295.292 1.61475 295.078 1.61475 294.649V290.521Z" fill="url(#paint4_linear_138_89)"/>
<path d="M1.61475 250.766H12.3182V246.637C12.3182 246.209 12.3182 245.995 12.2348 245.831C12.1615 245.687 12.0446 245.571 11.9007 245.497C11.7372 245.414 11.5231 245.414 11.0949 245.414H2.83799C2.40982 245.414 2.19573 245.414 2.03219 245.497C1.88833 245.571 1.77137 245.687 1.69807 245.831C1.61475 245.995 1.61475 246.209 1.61475 246.637V250.766Z" fill="url(#paint5_linear_138_89)"/>
<path fill-rule="evenodd" clip-rule="evenodd" d="M1.01676 295.803C0.850098 295.476 0.850098 295.048 0.850098 294.191V247.096C0.850098 246.24 0.850098 245.812 1.01676 245.485C1.16335 245.197 1.39727 244.963 1.68498 244.816C2.01206 244.65 2.44024 244.65 3.29659 244.65H10.6361C11.4924 244.65 11.9206 244.65 12.2477 244.816C12.5354 244.963 12.7693 245.197 12.9159 245.485C13.0826 245.812 13.0826 246.24 13.0826 247.096V294.191C13.0826 295.048 13.0826 295.476 12.9159 295.803C12.7693 296.091 12.5354 296.324 12.2477 296.471C11.9206 296.638 11.4924 296.638 10.6361 296.638H3.29659C2.44024 296.638 2.01206 296.638 1.68498 296.471C1.39727 296.324 1.16335 296.091 1.01676 295.803ZM1.69796 295.456C1.61463 295.292 1.61463 295.078 1.61463 294.65V246.637C1.61463 246.209 1.61463 245.995 1.69796 245.832C1.77125 245.688 1.88821 245.571 2.03207 245.498C2.19561 245.414 2.4097 245.414 2.83788 245.414H11.0948C11.523 245.414 11.7371 245.414 11.9006 245.498C12.0445 245.571 12.1614 245.688 12.2347 245.832C12.318 245.995 12.318 246.209 12.318 246.637V294.65C12.318 295.078 12.318 295.292 12.2347 295.456C12.1614 295.6 12.0445 295.717 11.9006 295.79C11.7371 295.873 11.523 295.873 11.0948 295.873H2.83788C2.4097 295.873 2.19561 295.873 2.03207 295.79C1.88821 295.717 1.77125 295.6 1.69796 295.456Z" fill="#353638"/>
<path d="M1.61475 182.417C1.61475 181.988 1.61475 181.774 1.69807 181.611C1.77137 181.467 1.88833 181.35 2.03219 181.277C2.19573 181.193 2.40982 181.193 2.83799 181.193H11.8594C12.2876 181.193 12.5017 181.193 12.6653 181.277C12.8091 181.35 12.9261 181.467 12.9994 181.611C13.0827 181.774 13.0827 181.988 13.0827 182.417V230.429C13.0827 230.857 13.0827 231.071 12.9994 231.235C12.9261 231.379 12.8091 231.496 12.6653 231.569C12.5017 231.652 12.2876 231.652 11.8594 231.652H2.83799C2.40982 231.652 2.19573 231.652 2.03219 231.569C1.88833 231.496 1.77137 231.379 1.69807 231.235C1.61475 231.071 1.61475 230.857 1.61475 230.429V182.417Z" fill="url(#paint6_linear_138_89)"/>
<path d="M1.61475 226.3H12.3182V230.429C12.3182 230.857 12.3182 231.071 12.2348 231.235C12.1615 231.379 12.0446 231.496 11.9007 231.569C11.7372 231.652 11.5231 231.652 11.0949 231.652H2.83799C2.40982 231.652 2.19573 231.652 2.03219 231.569C1.88833 231.496 1.77137 231.379 1.69807 231.235C1.61475 231.071 1.61475 230.857 1.61475 230.429V226.3Z" fill="url(#paint7_linear_138_89)"/>
<path d="M1.61475 186.545H12.3182V182.417C12.3182 181.988 12.3182 181.774 12.2348 181.611C12.1615 181.467 12.0446 181.35 11.9007 181.277C11.7372 181.193 11.5231 181.193 11.0949 181.193H2.83799C2.40982 181.193 2.19573 181.193 2.03219 181.277C1.88833 181.35 1.77137 181.467 1.69807 181.611C1.61475 181.774 1.61475 181.988 1.61475 182.417V186.545Z" fill="url(#paint8_linear_138_89)"/>
<path fill-rule="evenodd" clip-rule="evenodd" d="M1.01676 231.582C0.850098 231.255 0.850098 230.827 0.850098 229.97V182.875C0.850098 182.019 0.850098 181.591 1.01676 181.264C1.16335 180.976 1.39727 180.742 1.68498 180.596C2.01206 180.429 2.44024 180.429 3.29659 180.429H10.6361C11.4924 180.429 11.9206 180.429 12.2477 180.596C12.5354 180.742 12.7693 180.976 12.9159 181.264C13.0826 181.591 13.0826 182.019 13.0826 182.875V229.97C13.0826 230.827 13.0826 231.255 12.9159 231.582C12.7693 231.87 12.5354 232.104 12.2477 232.25C11.9206 232.417 11.4924 232.417 10.6361 232.417H3.29659C2.44024 232.417 2.01206 232.417 1.68498 232.25C1.39727 232.104 1.16335 231.87 1.01676 231.582ZM1.69796 231.235C1.61463 231.071 1.61463 230.857 1.61463 230.429V182.417C1.61463 181.988 1.61463 181.774 1.69796 181.611C1.77125 181.467 1.88821 181.35 2.03207 181.277C2.19561 181.193 2.4097 181.193 2.83788 181.193H11.0948C11.523 181.193 11.7371 181.193 11.9006 181.277C12.0445 181.35 12.1614 181.467 12.2347 181.611C12.318 181.774 12.318 181.988 12.318 182.417V230.429C12.318 230.857 12.318 231.071 12.2347 231.235C12.1614 231.379 12.0445 231.496 11.9006 231.569C11.7371 231.652 11.523 231.652 11.0948 231.652H2.83788C2.4097 231.652 2.19561 231.652 2.03207 231.569C1.88821 231.496 1.77125 231.379 1.69796 231.235Z" fill="#353638"/>
<path d="M1.61475 133.486C1.61475 133.058 1.61475 132.844 1.69807 132.68C1.77137 132.537 1.88833 132.42 2.03219 132.346C2.19573 132.263 2.40982 132.263 2.83799 132.263H11.8594C12.2876 132.263 12.5017 132.263 12.6653 132.346C12.8091 132.42 12.9261 132.537 12.9994 132.68C13.0827 132.844 13.0827 133.058 13.0827 133.486V157.034C13.0827 157.462 13.0827 157.676 12.9994 157.84C12.9261 157.983 12.8091 158.1 12.6653 158.174C12.5017 158.257 12.2876 158.257 11.8594 158.257H2.83799C2.40982 158.257 2.19573 158.257 2.03219 158.174C1.88833 158.1 1.77137 157.983 1.69807 157.84C1.61475 157.676 1.61475 157.462 1.61475 157.034V133.486Z" fill="url(#paint9_linear_138_89)"/>
<path d="M1.61475 137.615H12.3182V133.486C12.3182 133.058 12.3182 132.844 12.2348 132.68C12.1615 132.537 12.0446 132.42 11.9007 132.346C11.7372 132.263 11.5231 132.263 11.0949 132.263H2.83799C2.40982 132.263 2.19573 132.263 2.03219 132.346C1.88833 132.42 1.77137 132.537 1.69807 132.68C1.61475 132.844 1.61475 133.058 1.61475 133.486V137.615Z" fill="url(#paint10_linear_138_89)"/>
<path d="M1.61475 153.67H12.3182V157.798C12.3182 158.226 12.3182 158.441 12.2348 158.604C12.1615 158.748 12.0446 158.865 11.9007 158.938C11.7372 159.022 11.5231 159.022 11.0949 159.022H2.83799C2.40982 159.022 2.19573 159.022 2.03219 158.938C1.88833 158.865 1.77137 158.748 1.69807 158.604C1.61475 158.441 1.61475 158.226 1.61475 157.798V153.67Z" fill="url(#paint11_linear_138_89)"/>
<path fill-rule="evenodd" clip-rule="evenodd" d="M1.01676 158.187C0.850098 157.86 0.850098 157.432 0.850098 156.575V133.945C0.850098 133.089 0.850098 132.661 1.01676 132.334C1.16335 132.046 1.39727 131.812 1.68498 131.665C2.01206 131.499 2.44024 131.499 3.29659 131.499H10.6361C11.4924 131.499 11.9206 131.499 12.2477 131.665C12.5354 131.812 12.7693 132.046 12.9159 132.334C13.0826 132.661 13.0826 133.089 13.0826 133.945V156.575C13.0826 157.432 13.0826 157.86 12.9159 158.187C12.7693 158.475 12.5354 158.709 12.2477 158.855C11.9206 159.022 11.4924 159.022 10.6361 159.022H3.29659C2.44024 159.022 2.01206 159.022 1.68498 158.855C1.39727 158.709 1.16335 158.475 1.01676 158.187ZM1.69796 157.84C1.61463 157.676 1.61463 157.462 1.61463 157.034V133.486C1.61463 133.058 1.61463 132.844 1.69796 132.681C1.77125 132.537 1.88821 132.42 2.03207 132.347C2.19561 132.263 2.4097 132.263 2.83788 132.263H11.0948C11.523 132.263 11.7371 132.263 11.9006 132.347C12.0445 132.42 12.1614 132.537 12.2347 132.681C12.318 132.844 12.318 133.058 12.318 133.486V157.034C12.318 157.462 12.318 157.676 12.2347 157.84C12.1614 157.984 12.0445 158.101 11.9006 158.174C11.7371 158.257 11.523 158.257 11.0948 158.257H2.83788C2.4097 158.257 2.19561 158.257 2.03207 158.174C1.88821 158.101 1.77125 157.984 1.69796 157.84Z" fill="#353638"/>
<path fill-rule="evenodd" clip-rule="evenodd" d="M14.4119 34.99C8.49561 46.6014 8.49561 61.8017 8.49561 92.2023V589.758C8.49561 620.159 8.49561 635.359 14.4119 646.971C19.6161 657.184 27.9201 665.488 38.1339 670.693C49.7454 676.609 64.9456 676.609 95.3462 676.609H241.983C272.384 676.609 287.584 676.609 299.195 670.693C309.409 665.488 317.713 657.184 322.917 646.971C328.834 635.359 328.834 620.159 328.834 589.758V92.2023C328.834 61.8017 328.834 46.6014 322.917 34.99C317.713 24.7762 309.409 16.4722 299.195 11.268C287.584 5.35168 272.384 5.35168 241.983 5.35168H95.3462C64.9456 5.35168 49.7454 5.35168 38.1339 11.268C27.9201 16.4722 19.6161 24.7762 14.4119 34.99ZM23.1009 38.6672C18.4345 47.8256 18.4345 59.8145 18.4345 83.7924V598.168C18.4345 622.146 18.4345 634.135 23.1009 643.293C27.2056 651.349 33.7553 657.899 41.8112 662.004C50.9695 666.67 62.9585 666.67 86.9364 666.67H250.393C274.371 666.67 286.36 666.67 295.518 662.004C303.574 657.899 310.124 651.349 314.228 643.293C318.895 634.135 318.895 622.146 318.895 598.168V83.7924C318.895 59.8145 318.895 47.8256 314.228 38.6672C310.124 30.6113 303.574 24.0617 295.518 19.957C286.36 15.2906 274.371 15.2906 250.393 15.2906H86.9364C62.9585 15.2906 50.9695 15.2906 41.8112 19.957C33.7553 24.0617 27.2056 30.6113 23.1009 38.6672Z" fill="black"/>
<path fill-rule="evenodd" clip-rule="evenodd" d="M13.5635 33.8078C7.73047 45.2558 7.73047 60.242 7.73047 90.2143V591.746C7.73047 621.718 7.73047 636.705 13.5635 648.153C18.6943 658.222 26.8814 666.409 36.9513 671.54C48.3992 677.373 63.3854 677.373 93.3578 677.373H243.97C273.943 677.373 288.929 677.373 300.377 671.54C310.447 666.409 318.634 658.222 323.765 648.153C329.598 636.705 329.598 621.718 329.598 591.746V90.2143C329.598 60.242 329.598 45.2558 323.765 33.8078C318.634 23.7379 310.447 15.5509 300.377 10.42C288.929 4.58698 273.943 4.58698 243.97 4.58698H93.3578C63.3854 4.58698 48.3992 4.58698 36.9513 10.42C26.8814 15.5509 18.6943 23.7379 13.5635 33.8078ZM14.4114 34.9898C8.49504 46.6013 8.49504 61.8015 8.49504 92.2021V589.758C8.49504 620.159 8.49504 635.359 14.4114 646.971C19.6155 657.184 27.9196 665.488 38.1333 670.693C49.7448 676.609 64.9451 676.609 95.3456 676.609H241.982C272.383 676.609 287.583 676.609 299.195 670.693C309.409 665.488 317.713 657.184 322.917 646.971C328.833 635.359 328.833 620.159 328.833 589.758V92.2021C328.833 61.8016 328.833 46.6013 322.917 34.9898C317.713 24.776 309.409 16.472 299.195 11.2678C287.583 5.35151 272.383 5.35151 241.982 5.35151H95.3456C64.9451 5.35151 49.7448 5.35151 38.1333 11.2678C27.9196 16.472 19.6155 24.776 14.4114 34.9898Z" fill="#474747"/>
<path fill-rule="evenodd" clip-rule="evenodd" d="M12.2018 33.1137C6.20215 44.8887 6.20215 60.3031 6.20215 91.1318V590.829C6.20215 621.657 6.20215 637.072 12.2018 648.847C17.4793 659.204 25.9003 667.625 36.2579 672.903C48.0329 678.902 63.4473 678.902 94.276 678.902H243.054C273.882 678.902 289.297 678.902 301.072 672.903C311.429 667.625 319.85 659.204 325.128 648.847C331.127 637.072 331.127 621.657 331.127 590.829V91.1318C331.127 60.3031 331.127 44.8887 325.128 33.1137C319.85 22.7561 311.429 14.3351 301.072 9.05766C289.297 3.05798 273.882 3.05798 243.054 3.05798H94.276C63.4473 3.05798 48.0329 3.05798 36.2579 9.05766C25.9003 14.3351 17.4793 22.7561 12.2018 33.1137ZM13.5642 33.8079C7.73121 45.2558 7.73121 60.242 7.73121 90.2144V591.746C7.73121 621.718 7.73121 636.705 13.5642 648.153C18.6951 658.222 26.8822 666.41 36.9521 671.54C48.4 677.373 63.3862 677.373 93.3586 677.373H243.971C273.943 677.373 288.93 677.373 300.377 671.54C310.447 666.41 318.634 658.222 323.765 648.153C329.598 636.705 329.598 621.718 329.598 591.746V90.2144C329.598 60.242 329.598 45.2558 323.765 33.8079C318.634 23.738 310.447 15.5509 300.377 10.4201C288.93 4.58704 273.943 4.58704 243.971 4.58704H93.3586C63.3862 4.58704 48.4 4.58704 36.9521 10.4201C26.8822 15.5509 18.6951 23.738 13.5642 33.8079Z" fill="#A6A6A4"/>
<path fill-rule="evenodd" clip-rule="evenodd" d="M10.8392 32.4195C4.67285 44.5216 4.67285 60.3642 4.67285 92.0494V589.912C4.67285 621.597 4.67285 637.44 10.8392 649.542C16.2633 660.187 24.9182 668.842 35.5635 674.266C47.6656 680.433 63.5082 680.433 95.1933 680.433H242.136C273.821 680.433 289.664 680.433 301.766 674.266C312.411 668.842 321.066 660.187 326.49 649.542C332.657 637.44 332.657 621.597 332.657 589.912V92.0494C332.657 60.3642 332.657 44.5216 326.49 32.4195C321.066 21.7742 312.411 13.1193 301.766 7.69521C289.664 1.52887 273.821 1.52887 242.136 1.52887H95.1933C63.5082 1.52887 47.6656 1.52887 35.5635 7.69521C24.9182 13.1193 16.2633 21.7742 10.8392 32.4195ZM12.2016 33.1137C6.20191 44.8887 6.20191 60.3031 6.20191 91.1319V590.829C6.20191 621.658 6.20191 637.073 12.2016 648.848C17.4791 659.205 25.9001 667.626 36.2577 672.904C48.0327 678.903 63.4471 678.903 94.2759 678.903H243.054C273.882 678.903 289.297 678.903 301.072 672.904C311.429 667.626 319.85 659.205 325.128 648.848C331.128 637.073 331.128 621.658 331.128 590.829V91.1319C331.128 60.3031 331.128 44.8887 325.128 33.1137C319.85 22.7561 311.429 14.3351 301.072 9.05761C289.297 3.05793 273.882 3.05793 243.054 3.05793H94.2759C63.4471 3.05793 48.0327 3.05793 36.2577 9.05761C25.9001 14.3351 17.4791 22.7561 12.2016 33.1137Z" fill="#F0F0F0"/>
<path fill-rule="evenodd" clip-rule="evenodd" d="M10.1579 32.0726C3.9082 44.3383 3.9082 60.395 3.9082 92.5083V589.454C3.9082 621.567 3.9082 637.624 10.1579 649.889C15.6552 660.678 24.4271 669.45 35.2163 674.948C47.482 681.197 63.5386 681.197 95.6519 681.197H241.677C273.791 681.197 289.847 681.197 302.113 674.948C312.902 669.45 321.674 660.678 327.171 649.889C333.421 637.624 333.421 621.567 333.421 589.454V92.5083C333.421 60.3949 333.421 44.3383 327.171 32.0726C321.674 21.2834 312.902 12.5116 302.113 7.01419C289.847 0.764526 273.791 0.764526 241.677 0.764526H95.6519C63.5386 0.764526 47.482 0.764526 35.2163 7.01419C24.4271 12.5116 15.6552 21.2834 10.1579 32.0726ZM10.8391 32.4197C4.67273 44.5218 4.67273 60.3644 4.67273 92.0496V589.912C4.67273 621.597 4.67273 637.44 10.8391 649.542C16.2631 660.187 24.9181 668.842 35.5634 674.266C47.6655 680.433 63.5081 680.433 95.1932 680.433H242.136C273.821 680.433 289.664 680.433 301.766 674.266C312.411 668.842 321.066 660.187 326.49 649.542C332.657 637.44 332.657 621.597 332.657 589.912V92.0496C332.657 60.3644 332.657 44.5218 326.49 32.4197C321.066 21.7744 312.411 13.1195 301.766 7.6954C289.664 1.52906 273.821 1.52906 242.136 1.52906H95.1932C63.5081 1.52906 47.6655 1.52906 35.5634 7.6954C24.9181 13.1195 16.2631 21.7744 10.8391 32.4197Z" fill="#AFAFAD"/>
<path fill-rule="evenodd" clip-rule="evenodd" d="M9.47655 31.7254C3.14355 44.1546 3.14355 60.4254 3.14355 92.9669V588.995C3.14355 621.536 3.14355 637.807 9.47655 650.236C15.0472 661.169 23.9361 670.058 34.8691 675.629C47.2983 681.962 63.569 681.962 96.1105 681.962H241.219C273.76 681.962 290.031 681.962 302.46 675.629C313.393 670.058 322.282 661.169 327.853 650.236C334.186 637.807 334.186 621.536 334.186 588.995V92.9669C334.186 60.4254 334.186 44.1546 327.853 31.7254C322.282 20.7924 313.393 11.9035 302.46 6.33288C290.031 -0.00012207 273.76 -0.00012207 241.219 -0.00012207H96.1105C63.569 -0.00012207 47.2983 -0.00012207 34.8691 6.33288C23.9361 11.9035 15.0472 20.7924 9.47655 31.7254ZM10.1578 32.0725C3.90809 44.3382 3.90809 60.3948 3.90809 92.5082V589.453C3.90809 621.567 3.90809 637.623 10.1578 649.889C15.6551 660.678 24.427 669.45 35.2162 674.947C47.4818 681.197 63.5385 681.197 95.6518 681.197H241.677C273.791 681.197 289.847 681.197 302.113 674.947C312.902 669.45 321.674 660.678 327.171 649.889C333.421 637.623 333.421 621.567 333.421 589.453V92.5081C333.421 60.3948 333.421 44.3382 327.171 32.0725C321.674 21.2833 312.902 12.5114 302.113 7.01408C289.847 0.764409 273.791 0.764409 241.677 0.764409H95.6518C63.5385 0.764409 47.4818 0.764409 35.2162 7.01408C24.427 12.5114 15.6551 21.2833 10.1578 32.0725Z" fill="#656564"/>
<rect opacity="0.5" x="256.204" y="-0.000183105" width="5.35171" height="5.35171" fill="#A6A6A4"/>
<rect opacity="0.5" x="3.14355" y="71.8657" width="5.35171" height="4.58718" fill="#A6A6A4"/>
<rect opacity="0.5" x="3.14355" y="605.509" width="5.35171" height="4.58718" fill="#A6A6A4"/>
<rect opacity="0.5" x="328.834" y="605.509" width="5.35171" height="4.58718" fill="#A6A6A4"/>
<rect opacity="0.5" x="72.7163" y="676.61" width="4.58718" height="5.35171" fill="#A6A6A4"/>
<path opacity="0.5" d="M202.305 5.73322V6.11603C202.305 6.65723 202.304 7.04021 202.28 7.33966C202.256 7.63474 202.21 7.81529 202.138 7.95685C201.992 8.24447 201.758 8.47822 201.47 8.62482C201.329 8.69694 201.148 8.74329 200.853 8.7674C200.554 8.79184 200.171 8.79181 199.629 8.79181H137.703C137.161 8.79181 136.778 8.79186 136.478 8.7674C136.183 8.74329 136.002 8.69694 135.861 8.62482C135.573 8.47821 135.339 8.24443 135.193 7.95685C135.121 7.8153 135.075 7.63469 135.051 7.33966C135.027 7.04021 135.026 6.65722 135.026 6.11603V5.73322H202.305Z" fill="#0F1013" stroke="url(#paint12_linear_138_89)" stroke-width="0.764531"/>
<path opacity="0.8" fill-rule="evenodd" clip-rule="evenodd" d="M136.172 6.88056C136.172 6.45832 136.514 6.11603 136.936 6.11603H200.392C200.815 6.11603 201.157 6.45832 201.157 6.88056V6.88056C201.157 7.3028 200.815 7.64509 200.392 7.64509H136.936C136.514 7.64509 136.172 7.3028 136.172 6.88056V6.88056Z" fill="#1F2224"/>
<g clip-path="url(#clip0_138_89)">
<path d="M120.881 38.2264C120.881 30.6261 127.043 24.4648 134.643 24.4648H202.686C210.286 24.4648 216.448 30.6261 216.448 38.2264C216.448 45.8267 210.286 51.9879 202.686 51.9879H134.643C127.043 51.9879 120.881 45.8267 120.881 38.2264Z" fill="black"/>
<path fill-rule="evenodd" clip-rule="evenodd" d="M202.687 43.5779C205.643 43.5779 208.039 41.1819 208.039 38.2262C208.039 35.2706 205.643 32.8745 202.687 32.8745C199.731 32.8745 197.335 35.2706 197.335 38.2262C197.335 41.1819 199.731 43.5779 202.687 43.5779ZM202.687 42.8134C205.221 42.8134 207.274 40.7597 207.274 38.2262C207.274 35.6928 205.221 33.639 202.687 33.639C200.154 33.639 198.1 35.6928 198.1 38.2262C198.1 40.7597 200.154 42.8134 202.687 42.8134Z" fill="url(#paint13_linear_138_89)"/>
<g filter="url(#filter0_i_138_89)">
<ellipse cx="202.687" cy="40.1809" rx="1.19024" ry="2.29359" transform="rotate(90 202.687 40.1809)" fill="url(#paint14_radial_138_89)"/>
</g>
<g filter="url(#filter1_i_138_89)">
<ellipse cx="1.19024" cy="2.29359" rx="1.19024" ry="2.29359" transform="matrix(-1.19249e-08 -1 -1 1.19249e-08 204.981 37.5486)" fill="url(#paint15_radial_138_89)"/>
</g>
</g>
<defs>
<filter id="filter0_i_138_89" x="200.394" y="38.9907" width="4.5874" height="2.38049" filterUnits="userSpaceOnUse" color-interpolation-filters="sRGB">
<feFlood flood-opacity="0" result="BackgroundImageFix"/>
<feBlend mode="normal" in="SourceGraphic" in2="BackgroundImageFix" result="shape"/>
<feColorMatrix in="SourceAlpha" type="matrix" values="0 0 0 0 0 0 0 0 0 0 0 0 0 0 0 0 0 0 127 0" result="hardAlpha"/>
<feOffset/>
<feGaussianBlur stdDeviation="0.382266"/>
<feComposite in2="hardAlpha" operator="arithmetic" k2="-1" k3="1"/>
<feColorMatrix type="matrix" values="0 0 0 0 0 0 0 0 0 0 0 0 0 0 0 0 0 0 0.5 0"/>
<feBlend mode="normal" in2="shape" result="effect1_innerShadow_138_89"/>
</filter>
<filter id="filter1_i_138_89" x="200.394" y="35.1682" width="4.5874" height="2.38049" filterUnits="userSpaceOnUse" color-interpolation-filters="sRGB">
<feFlood flood-opacity="0" result="BackgroundImageFix"/>
<feBlend mode="normal" in="SourceGraphic" in2="BackgroundImageFix" result="shape"/>
<feColorMatrix in="SourceAlpha" type="matrix" values="0 0 0 0 0 0 0 0 0 0 0 0 0 0 0 0 0 0 127 0" result="hardAlpha"/>
<feOffset/>
<feGaussianBlur stdDeviation="0.382266"/>
<feComposite in2="hardAlpha" operator="arithmetic" k2="-1" k3="1"/>
<feColorMatrix type="matrix" values="0 0 0 0 0 0 0 0 0 0 0 0 0 0 0 0 0 0 0.5 0"/>
<feBlend mode="normal" in2="shape" result="effect1_innerShadow_138_89"/>
</filter>
<linearGradient id="paint0_linear_138_89" x1="329.981" y1="216.362" x2="329.981" y2="297.402" gradientUnits="userSpaceOnUse">
<stop stop-color="#474747"/>
<stop offset="0.484375" stop-color="#A6A6A4"/>
<stop offset="1" stop-color="#474747"/>
</linearGradient>
<linearGradient id="paint1_linear_138_89" x1="330.363" y1="292.585" x2="330.363" y2="296.867" gradientUnits="userSpaceOnUse">
<stop stop-color="#3C3631"/>
<stop offset="0.249443" stop-color="#050000"/>
<stop offset="0.475668" stop-color="#C1BDB9"/>
<stop offset="0.740898" stop-color="#C1BDB9"/>
<stop offset="1" stop-color="#736F6B"/>
</linearGradient>
<linearGradient id="paint2_linear_138_89" x1="330.363" y1="221.178" x2="330.363" y2="216.897" gradientUnits="userSpaceOnUse">
<stop stop-color="#3C3631"/>
<stop offset="0.249443" stop-color="#050000"/>
<stop offset="0.475668" stop-color="#C1BDB9"/>
<stop offset="0.740898" stop-color="#C1BDB9"/>
<stop offset="1" stop-color="#736F6B"/>
</linearGradient>
<linearGradient id="paint3_linear_138_89" x1="7.34872" y1="245.414" x2="7.34872" y2="295.873" gradientUnits="userSpaceOnUse">
<stop stop-color="#474747"/>
<stop offset="0.484375" stop-color="#A6A6A4"/>
<stop offset="1" stop-color="#474747"/>
</linearGradient>
<linearGradient id="paint4_linear_138_89" x1="6.96646" y1="291.056" x2="6.96646" y2="295.338" gradientUnits="userSpaceOnUse">
<stop stop-color="#3C3631"/>
<stop offset="0.249443" stop-color="#050000"/>
<stop offset="0.475668" stop-color="#C1BDB9"/>
<stop offset="0.740898" stop-color="#C1BDB9"/>
<stop offset="1" stop-color="#736F6B"/>
</linearGradient>
<linearGradient id="paint5_linear_138_89" x1="6.96646" y1="250.23" x2="6.96646" y2="245.949" gradientUnits="userSpaceOnUse">
<stop stop-color="#3C3631"/>
<stop offset="0.249443" stop-color="#050000"/>
<stop offset="0.475668" stop-color="#C1BDB9"/>
<stop offset="0.740898" stop-color="#C1BDB9"/>
<stop offset="1" stop-color="#736F6B"/>
</linearGradient>
<linearGradient id="paint6_linear_138_89" x1="7.34872" y1="181.193" x2="7.34872" y2="231.652" gradientUnits="userSpaceOnUse">
<stop stop-color="#474747"/>
<stop offset="0.484375" stop-color="#A6A6A4"/>
<stop offset="1" stop-color="#474747"/>
</linearGradient>
<linearGradient id="paint7_linear_138_89" x1="6.96646" y1="226.836" x2="6.96646" y2="231.117" gradientUnits="userSpaceOnUse">
<stop stop-color="#3C3631"/>
<stop offset="0.249443" stop-color="#050000"/>
<stop offset="0.475668" stop-color="#C1BDB9"/>
<stop offset="0.740898" stop-color="#C1BDB9"/>
<stop offset="1" stop-color="#736F6B"/>
</linearGradient>
<linearGradient id="paint8_linear_138_89" x1="6.96646" y1="186.01" x2="6.96646" y2="181.729" gradientUnits="userSpaceOnUse">
<stop stop-color="#3C3631"/>
<stop offset="0.249443" stop-color="#050000"/>
<stop offset="0.475668" stop-color="#C1BDB9"/>
<stop offset="0.740898" stop-color="#C1BDB9"/>
<stop offset="1" stop-color="#736F6B"/>
</linearGradient>
<linearGradient id="paint9_linear_138_89" x1="7.34872" y1="132.263" x2="7.34872" y2="158.257" gradientUnits="userSpaceOnUse">
<stop stop-color="#474747"/>
<stop offset="0.484375" stop-color="#A6A6A4"/>
<stop offset="1" stop-color="#474747"/>
</linearGradient>
<linearGradient id="paint10_linear_138_89" x1="6.96646" y1="137.079" x2="6.96646" y2="132.798" gradientUnits="userSpaceOnUse">
<stop stop-color="#3C3631"/>
<stop offset="0.249443" stop-color="#050000"/>
<stop offset="0.475668" stop-color="#C1BDB9"/>
<stop offset="0.740898" stop-color="#C1BDB9"/>
<stop offset="1" stop-color="#736F6B"/>
</linearGradient>
<linearGradient id="paint11_linear_138_89" x1="6.96646" y1="154.205" x2="6.96646" y2="158.486" gradientUnits="userSpaceOnUse">
<stop stop-color="#3C3631"/>
<stop offset="0.249443" stop-color="#050000"/>
<stop offset="0.475668" stop-color="#C1BDB9"/>
<stop offset="0.740898" stop-color="#C1BDB9"/>
<stop offset="1" stop-color="#736F6B"/>
</linearGradient>
<linearGradient id="paint12_linear_138_89" x1="134.644" y1="5.35138" x2="134.644" y2="9.17403" gradientUnits="userSpaceOnUse">
<stop stop-color="#101112"/>
<stop offset="1" stop-color="#232425"/>
</linearGradient>
<linearGradient id="paint13_linear_138_89" x1="203.579" y1="31.9826" x2="195.998" y2="37.7802" gradientUnits="userSpaceOnUse">
<stop stop-color="#010005"/>
<stop offset="1" stop-color="#2E2D31"/>
</linearGradient>
<radialGradient id="paint14_radial_138_89" cx="0" cy="0" r="1" gradientUnits="userSpaceOnUse" gradientTransform="translate(202.088 40.1809) rotate(90) scale(2.94118 1.20922)">
<stop stop-color="#1F85DE"/>
<stop offset="0.257948" stop-color="#1B75C9"/>
<stop offset="1" stop-color="#000232"/>
</radialGradient>
<radialGradient id="paint15_radial_138_89" cx="0" cy="0" r="1" gradientUnits="userSpaceOnUse" gradientTransform="translate(0.590428 2.29359) rotate(90) scale(2.94118 1.20922)">
<stop stop-color="#1F85DE"/>
<stop offset="0.257948" stop-color="#1B75C9"/>
<stop offset="1" stop-color="#000232"/>
</radialGradient>
<clipPath id="clip0_138_89">
<rect x="120.881" y="24.4648" width="95.5662" height="27.5231" rx="13.7615" fill="white"/>
</clipPath>
</defs>
</svg>
